<svg xmlns="http://www.w3.org/2000/svg" viewBox="0 0 640 512" fill="#007bff">
  <!-- Font Awesome Robot Icon -->
  <path d="M320 0c17.7 0 32 14.3 32 32V96H472c39.8 0 72 32.2 72 72V440c0 39.8-32.2 72-72 72H168c-39.8 0-72-32.2-72-72V168c0-39.8 32.2-72 72-72H288V32c0-17.7 14.3-32 32-32zM208 384c-8.8 0-16 7.2-16 16s7.2 16 16 16h32c8.8 0 16-7.2 16-16s-7.2-16-16-16H208zm96 0c-8.8 0-16 7.2-16 16s7.2 16 16 16h32c8.8 0 16-7.2 16-16s-7.2-16-16-16H304zm80-160a64 64 0 1 0 -128 0 64 64 0 1 0 128 0zM320 352a96 96 0 1 0 0-192 96 96 0 1 0 0 192z"/>
</svg>